<svg width="2912" height="1251" viewBox="0 0 2912 1251" fill="none" xmlns="http://www.w3.org/2000/svg">
<path d="M786.912 649.134C387.4 509.246 169.227 548.143 0 718.67V1250.93H2912V594.065C2333.61 1146.59 1568.73 922.888 786.912 649.134Z" fill="#3141D0"/>
<path opacity="0.4" d="M1413.07 823.689C738.082 139.541 235.747 246.049 0 325.612V1247.81H2150.39C2020.43 1021.25 1692.11 1106.51 1413.07 823.689Z" fill="#FFFCDD"/>
<path opacity="0.4" d="M559.79 835.422C310.685 730.053 162.637 719.77 0 877.829V1247.81H1071.61C1032.13 1141.9 860.546 962.641 559.79 835.422Z" fill="#FFFCDD"/>
<path opacity="0.2" d="M2066.33 985.117C2002.55 1014.75 1940.7 1054.43 1882.49 1103.06C1810.31 1163.34 1761.59 1222.76 1740.22 1250.93H1748.07C1770.55 1221.73 1817.87 1165.14 1886.64 1107.72C1977.4 1031.94 2125.13 939.216 2313.48 927.858C2403.41 922.436 2488.19 907.459 2565.48 883.348C2640.17 860.046 2710.26 827.459 2773.81 786.491C2823.23 754.636 2869.16 717.734 2912 675.377V666.037C2755.59 822.772 2557.75 906.881 2313.1 921.631C2229.13 926.693 2146.11 948.053 2066.33 985.117ZM2292.79 902.661C2210.93 908.663 2129.36 931.507 2050.34 970.562C1987.18 1001.78 1925.5 1043.37 1867.02 1094.18C1792.34 1159.05 1741.85 1222.79 1721.05 1250.93H1728.83C1750.93 1221.42 1800 1160.64 1871.25 1098.77C1962.45 1019.57 2109.69 922.336 2293.25 908.881C2544.84 890.444 2752.03 788.903 2912 606.249V596.676C2752.45 781.492 2545.08 884.174 2292.79 902.661ZM2082.33 999.67C2017.93 1027.72 1955.9 1065.49 1897.96 1111.93C1828.32 1167.75 1781.3 1222.97 1759.46 1250.93H1767.4C1790.18 1222.23 1835.79 1169.73 1902.03 1116.66C1992.35 1044.3 2140.57 956.09 2333.71 946.832C2514.37 938.173 2664.78 897.849 2793.54 823.562C2835.17 799.543 2874.56 771.863 2912 740.293V731.268C2758.71 861.698 2569.99 929.259 2333.41 940.601C2247.34 944.727 2162.86 964.6 2082.33 999.67ZM2130.33 1043.34C2064.07 1066.62 2001.52 1098.65 1944.39 1138.55C1882.64 1181.68 1840.56 1224.9 1817.91 1250.93H1826.2C1849.28 1224.93 1889.77 1184.31 1947.96 1143.67C2037.01 1081.47 2186.76 1006.71 2394.4 1003.75C2577.73 1001.13 2727.6 978.569 2852.58 934.774C2873.46 927.454 2893.21 919.718 2912 911.656V904.417C2790.34 957.099 2632.83 994.103 2394.31 997.509C2301.94 998.826 2213.12 1014.25 2130.33 1043.34ZM2098.33 1014.23C2033.31 1040.68 1971.11 1076.54 1913.43 1120.8C1846.39 1172.26 1801.02 1223.41 1778.81 1250.93H1786.84C1809.84 1222.93 1853.78 1174.43 1917.42 1125.61C2007.3 1056.66 2156 972.966 2353.94 965.802C2536.05 959.214 2686.29 924.811 2813.24 860.631C2847.65 843.235 2880.42 823.658 2912 801.558V794.408C2786.98 882.575 2614.39 950.138 2353.71 959.569C2265.54 962.76 2179.62 981.147 2098.33 1014.23ZM2114.32 1028.78C2048.69 1053.65 1986.31 1087.6 1928.91 1129.68C1864.48 1176.91 1820.76 1224.06 1798.28 1250.93H1806.43C1829.5 1223.86 1871.68 1179.37 1932.6 1134.71C2022.08 1069.11 2171.33 989.842 2374.17 984.776C2557.29 980.203 2707.35 951.721 2832.93 897.706C2861.15 885.565 2887.45 872.382 2912 858.566V851.532C2781.37 925.998 2616.82 972.475 2374.02 978.537C2283.74 980.794 2196.37 997.697 2114.32 1028.78ZM2272.49 883.695C2192.73 890.633 2112.6 914.964 2034.35 956.013C1971.8 988.819 1910.3 1032.32 1851.55 1085.3C1774.31 1154.96 1722.04 1223.12 1701.98 1250.93H1709.69C1731.28 1221.38 1782.12 1156.3 1855.86 1089.82C1947.49 1007.2 2094.25 905.461 2273.03 889.909C2445.63 874.897 2600.83 815.161 2734.31 712.358C2799.28 662.317 2858.63 602.435 2912 533.216V523.246C2749.44 737.737 2532.08 861.117 2272.49 883.695ZM2252.17 864.73C2174.52 872.605 2095.85 898.423 2018.35 941.465C1956.43 975.857 1895.11 1021.26 1836.09 1076.42C1756.26 1151.03 1702.13 1223.76 1682.97 1250.93H1690.62C1711.57 1221.58 1764.24 1152.1 1840.47 1080.88C1932.54 994.841 2078.82 888.58 2252.8 870.935C2423.37 853.637 2578.72 787.814 2714.55 675.297C2787.97 614.474 2853.94 541.399 2912 456.741V445.783C2746.7 691.36 2518.81 837.687 2252.17 864.73ZM2170.9 788.872C2101.68 800.506 2028.84 832.269 1954.39 883.28C1894.95 924.011 1834.35 977.042 1774.26 1040.9C1682.59 1138.33 1619.89 1231.86 1607.41 1250.93H1614.88C1631.34 1226.08 1692.02 1137.41 1778.8 1045.18C1872.66 945.428 2017.05 821.056 2171.93 795.026C2329.57 768.534 2494.15 673.382 2635.37 527.102C2744.07 414.504 2837.73 273.493 2912 111.886V97.6971C2711.14 545.311 2399.48 750.458 2170.9 788.872ZM2610.98 485.828C2468.42 640.107 2304.9 740.996 2150.57 769.911C2083.47 782.486 2012.09 815.734 1938.4 868.735C1879.59 911.048 1819.16 965.985 1758.8 1032.02C1662.96 1136.89 1597.49 1237.13 1588.62 1250.93H1596.06C1610.58 1228.66 1673.63 1134.45 1763.48 1036.16C1857.76 933.015 2001.65 804.164 2151.72 776.045C2307.36 746.883 2472.09 645.32 2615.56 490.06C2734.15 361.73 2834.7 200.568 2912 16.3497V0C2834.25 189.351 2732.05 354.808 2610.98 485.828ZM2191.22 807.836C2119.89 818.529 2045.59 848.806 1970.38 897.824C1910.32 936.97 1849.53 988.097 1789.72 1049.78C1701.42 1140.84 1641.11 1228.6 1626.24 1250.93H1633.75C1651.74 1224.22 1710.3 1140.63 1794.28 1054.04C1887.68 957.746 2032.52 837.934 2192.15 814.004C2354.12 789.723 2514.23 703.322 2655.18 564.145C2754.35 466.215 2841.15 343.946 2912 203.517V190.674C2714.65 591.172 2422.22 773.207 2191.22 807.836ZM2211.54 826.798C2138.1 836.551 2062.34 865.343 1986.37 912.369C1925.68 949.933 1864.72 999.152 1805.17 1058.67C1719.88 1143.9 1661.75 1226.36 1645.11 1250.93H1652.65C1671.85 1222.95 1728.35 1144.24 1809.67 1062.99C1902.63 970.113 2047.95 854.818 2212.36 832.983C2376.4 811.195 2536.37 731.043 2674.97 601.189C2747.14 533.58 2812.99 452.979 2870.69 361.627C2884.96 339.034 2898.73 315.742 2912 291.833V278.898C2742.38 590.105 2491.65 789.596 2211.54 826.798ZM2231.86 845.762C2156.32 854.577 2079.1 881.882 2002.36 926.916C1941.06 962.895 1879.91 1010.21 1820.63 1067.55C1738.13 1147.34 1682.05 1224.82 1664.01 1250.93H1671.61C1691.77 1222.08 1746.32 1148.07 1825.07 1071.93C1917.59 982.478 2063.38 871.703 2232.58 851.961C2398.69 832.581 2558.5 758.681 2694.76 638.243C2764.74 576.394 2828.83 502.226 2885.25 417.796C2894.37 404.154 2903.27 390.198 2912 376.001V364.328C2744.32 642.209 2505.32 813.859 2231.86 845.762Z" fill="#FFFCDD"/>
</svg>
